<svg width="50" height="50" viewBox="0 0 50 50" fill="none" xmlns="http://www.w3.org/2000/svg">
<rect width="50" height="50" rx="25" fill="#3C5061" fill-opacity="0.8"/>
<path d="M18.9688 24C18.4165 24 17.9688 24.4477 17.9688 25C17.9688 25.5523 18.4165 26 18.9688 26V24ZM31.7455 25.7071C32.136 25.3166 32.136 24.6834 31.7455 24.2929L25.3815 17.9289C24.991 17.5384 24.3579 17.5384 23.9673 17.9289C23.5768 18.3195 23.5768 18.9526 23.9673 19.3431L29.6242 25L23.9673 30.6569C23.5768 31.0474 23.5768 31.6805 23.9673 32.0711C24.3579 32.4616 24.991 32.4616 25.3815 32.0711L31.7455 25.7071ZM18.9688 25V26H31.0384V25V24H18.9688V25Z" fill="white"/>
</svg>
