<svg width="50" height="50" viewBox="0 0 50 50" fill="none" xmlns="http://www.w3.org/2000/svg">
<rect x="50.0078" y="49.9922" width="50" height="50" rx="25" transform="rotate(180 50.0078 49.9922)" fill="#3C5061" fill-opacity="0.8"/>
<path d="M31.0391 25.9922C31.5913 25.9922 32.0391 25.5445 32.0391 24.9922C32.0391 24.4399 31.5913 23.9922 31.0391 23.9922V25.9922ZM18.2623 24.2851C17.8718 24.6756 17.8718 25.3088 18.2623 25.6993L24.6263 32.0633C25.0168 32.4538 25.65 32.4538 26.0405 32.0633C26.431 31.6727 26.431 31.0396 26.0405 30.649L20.3836 24.9922L26.0405 19.3353C26.431 18.9448 26.431 18.3116 26.0405 17.9211C25.65 17.5306 25.0168 17.5306 24.6263 17.9211L18.2623 24.2851ZM31.0391 24.9922V23.9922L18.9694 23.9922V24.9922V25.9922L31.0391 25.9922V24.9922Z" fill="white"/>
</svg>
