<svg width="50" height="50" viewBox="0 0 50 50" fill="none" xmlns="http://www.w3.org/2000/svg">
<rect width="50" height="50" rx="25" fill="white"/>
<path d="M31.0703 26C31.6226 26 32.0703 25.5523 32.0703 25C32.0703 24.4477 31.6226 24 31.0703 24L31.0703 26ZM18.2936 24.2929C17.903 24.6834 17.903 25.3166 18.2936 25.7071L24.6575 32.0711C25.048 32.4616 25.6812 32.4616 26.0717 32.0711C26.4623 31.6805 26.4623 31.0474 26.0717 30.6569L20.4149 25L26.0717 19.3431C26.4623 18.9526 26.4623 18.3195 26.0717 17.9289C25.6812 17.5384 25.048 17.5384 24.6575 17.9289L18.2936 24.2929ZM31.0703 25L31.0703 24L19.0007 24L19.0007 25L19.0007 26L31.0703 26L31.0703 25Z" fill="#3D3D55"/>
</svg>
