<svg width="10" height="7" viewBox="0 0 10 7" fill="none" xmlns="http://www.w3.org/2000/svg">
<path fill-rule="evenodd" clip-rule="evenodd" d="M1.90293 1.00613C1.79457 0.910315 1.66729 0.835598 1.52836 0.78624C1.38942 0.736882 1.24155 0.71385 1.09319 0.718459C0.944832 0.723068 0.798886 0.755228 0.663686 0.813103C0.528487 0.870977 0.406682 0.953433 0.305226 1.05576C0.203771 1.15809 0.124651 1.27829 0.0723852 1.40949C0.0201192 1.5407 -0.00426964 1.68034 0.000610989 1.82045C0.0104679 2.1034 0.138947 2.37107 0.357786 2.56457L4.22799 5.98568C4.43738 6.17058 4.71333 6.27344 5 6.27344C5.28666 6.27344 5.56262 6.17058 5.77201 5.98568L9.64221 2.56671C9.86105 2.37321 9.98953 2.10554 9.99939 1.82258C10.0092 1.53962 9.89967 1.26456 9.69477 1.0579C9.48987 0.851234 9.20643 0.729902 8.9068 0.720594C8.60718 0.711286 8.31591 0.814763 8.09707 1.00826L5 3.74194L1.90293 1.00613Z" fill="#3D3D55"/>
</svg>
