<svg width="806" height="178" viewBox="0 0 806 178" fill="none" xmlns="http://www.w3.org/2000/svg">
<path d="M256.09 55.35H278.27C284.02 55.35 288.82 56.23 292.66 57.98C296.5 59.73 299.36 62.05 301.23 64.92C303.1 67.8 304.03 70.9101 304.03 74.2701C304.03 78.0001 303 81.18 300.95 83.79C298.9 86.4 296.3 88.53 293.17 90.17C297.43 91.51 300.82 93.64 303.36 96.55C305.9 99.46 307.17 103.01 307.17 107.19C307.17 113.54 304.76 118.61 299.95 122.42C295.13 126.23 288.1 128.13 278.84 128.13H256.1V55.3301L256.09 55.35ZM280.73 87.72C282.82 87.72 284.71 86.7301 286.39 84.7501C288.07 82.7701 288.91 79.58 288.91 75.17C288.91 70.76 287.9 67.6701 285.89 65.6501C283.88 63.6301 281.19 62.6301 277.83 62.6301H271.56V87.72H280.74H280.73ZM278.49 120.87C282.52 120.87 285.69 119.69 288.01 117.34C290.32 114.99 291.48 111.42 291.48 106.64C291.48 98.5001 288.16 94.4301 281.51 94.4301H271.54V120.86H278.48L278.49 120.87Z" fill="#141414"/>
<path d="M318.92 125.46C315.78 122.85 314.22 119.26 314.22 114.71C314.22 108.14 317.3 103.38 323.46 100.43C329.62 97.4801 336.81 95.6701 345.02 95.0001V91.7501C345.02 86.6701 344.31 83.1801 342.89 81.2801C341.47 79.3801 339.08 78.42 335.72 78.42C334.15 78.42 332.38 78.7201 330.4 79.3201C328.42 79.9201 326.7 80.55 325.25 81.22C323.8 81.89 322.84 82.3401 322.39 82.5601L320.93 75.3901C321.38 75.1701 322.44 74.7001 324.12 73.9901C325.8 73.2801 327.93 72.59 330.5 71.92C333.08 71.25 335.67 70.91 338.28 70.91C345.3 70.91 350.66 72.3901 354.35 75.3301C358.05 78.2801 359.89 83.3401 359.89 90.5101V115.93C359.89 119.89 360.67 121.87 362.24 121.87C362.84 121.87 363.55 121.76 364.37 121.53C365.19 121.31 365.75 121.16 366.05 121.08L366.5 126.9C366.12 127.05 365.23 127.31 363.81 127.68C362.39 128.06 360.77 128.43 358.94 128.8C357.11 129.17 355.49 129.36 354.07 129.36C351.9 129.36 350.22 128.82 349.03 127.74C347.83 126.66 347.05 124.88 346.68 122.42H346.12C346.12 122.64 345.62 123.34 344.61 124.49C343.6 125.65 342.02 126.75 339.85 127.79C337.68 128.83 334.88 129.36 331.45 129.36C326.22 129.36 322.04 128.05 318.91 125.44L318.92 125.46ZM341.04 120.53C342.35 119.63 343.34 118.65 344.01 117.56C344.68 116.48 345.02 115.86 345.02 115.71V100.93C340.02 101.45 336.23 102.63 333.65 104.46C331.07 106.29 329.79 109.07 329.79 112.8C329.79 115.79 330.39 118.05 331.58 119.58C332.77 121.11 334.38 121.88 336.4 121.88C338.19 121.88 339.74 121.43 341.05 120.54L341.04 120.53Z" fill="#141414"/>
<path d="M375.37 72.15H387.35L389.25 76.74H389.7C389.7 76.59 390.32 76.03 391.55 75.06C392.78 74.09 394.55 73.18 396.87 72.32C399.18 71.46 402.06 71.03 405.49 71.03C411.24 71.03 415.55 72.58 418.43 75.68C421.3 78.78 422.74 83.61 422.74 90.18V128.15H407.84V93.21C407.84 88.21 407.3 84.81 406.22 83.02C405.14 81.23 403.18 80.33 400.34 80.33C398.4 80.33 396.68 80.63 395.19 81.23C393.7 81.83 392.5 82.48 391.61 83.19C390.71 83.9 390.27 84.29 390.27 84.37V128.16H375.37V72.16V72.15Z" fill="#141414"/>
<path d="M436.63 125.46C433.49 122.85 431.93 119.26 431.93 114.71C431.93 108.14 435.01 103.38 441.17 100.43C447.33 97.4801 454.52 95.6701 462.73 95.0001V91.7501C462.73 86.6701 462.02 83.1801 460.6 81.2801C459.18 79.3801 456.79 78.42 453.43 78.42C451.86 78.42 450.09 78.7201 448.11 79.3201C446.13 79.9201 444.41 80.55 442.96 81.22C441.51 81.89 440.55 82.3401 440.1 82.5601L438.64 75.3901C439.09 75.1701 440.15 74.7001 441.83 73.9901C443.51 73.2801 445.64 72.59 448.21 71.92C450.79 71.25 453.38 70.91 455.99 70.91C463.01 70.91 468.37 72.3901 472.06 75.3301C475.76 78.2801 477.6 83.3401 477.6 90.5101V115.93C477.6 119.89 478.38 121.87 479.95 121.87C480.55 121.87 481.26 121.76 482.08 121.53C482.9 121.31 483.46 121.16 483.76 121.08L484.21 126.9C483.83 127.05 482.94 127.31 481.52 127.68C480.1 128.06 478.48 128.43 476.65 128.8C474.82 129.17 473.2 129.36 471.78 129.36C469.61 129.36 467.93 128.82 466.74 127.74C465.54 126.66 464.76 124.88 464.39 122.42H463.83C463.83 122.64 463.33 123.34 462.32 124.49C461.31 125.65 459.73 126.75 457.56 127.79C455.39 128.83 452.59 129.36 449.16 129.36C443.93 129.36 439.75 128.05 436.62 125.44L436.63 125.46ZM458.75 120.53C460.06 119.63 461.05 118.65 461.72 117.56C462.39 116.48 462.73 115.86 462.73 115.71V100.93C457.73 101.45 453.94 102.63 451.36 104.46C448.78 106.29 447.5 109.07 447.5 112.8C447.5 115.79 448.1 118.05 449.29 119.58C450.48 121.11 452.09 121.88 454.11 121.88C455.9 121.88 457.45 121.43 458.76 120.54L458.75 120.53Z" fill="#141414"/>
<path d="M493.08 72.15H505.06L506.96 76.74H507.41C507.41 76.59 508.03 76.03 509.26 75.06C510.49 74.09 512.26 73.18 514.58 72.32C516.89 71.46 519.77 71.03 523.2 71.03C528.95 71.03 533.26 72.58 536.14 75.68C539.01 78.78 540.45 83.61 540.45 90.18V128.15H525.55V93.21C525.55 88.21 525.01 84.81 523.93 83.02C522.85 81.23 520.89 80.33 518.05 80.33C516.11 80.33 514.39 80.63 512.9 81.23C511.41 81.83 510.21 82.48 509.32 83.19C508.42 83.9 507.98 84.29 507.98 84.37V128.16H493.08V72.16V72.15Z" fill="#141414"/>
<path d="M554.34 125.46C551.2 122.85 549.64 119.26 549.64 114.71C549.64 108.14 552.72 103.38 558.88 100.43C565.04 97.4801 572.23 95.6701 580.44 95.0001V91.7501C580.44 86.6701 579.73 83.1801 578.31 81.2801C576.89 79.3801 574.5 78.42 571.14 78.42C569.57 78.42 567.8 78.7201 565.82 79.3201C563.84 79.9201 562.12 80.55 560.67 81.22C559.22 81.89 558.26 82.3401 557.81 82.5601L556.35 75.3901C556.8 75.1701 557.86 74.7001 559.54 73.9901C561.22 73.2801 563.35 72.59 565.92 71.92C568.5 71.25 571.09 70.91 573.7 70.91C580.72 70.91 586.08 72.3901 589.77 75.3301C593.47 78.2801 595.31 83.3401 595.31 90.5101V115.93C595.31 119.89 596.09 121.87 597.66 121.87C598.26 121.87 598.97 121.76 599.79 121.53C600.61 121.31 601.17 121.16 601.47 121.08L601.92 126.9C601.54 127.05 600.65 127.31 599.23 127.68C597.81 128.06 596.19 128.43 594.36 128.8C592.53 129.17 590.91 129.36 589.49 129.36C587.32 129.36 585.64 128.82 584.45 127.74C583.25 126.66 582.47 124.88 582.1 122.42H581.54C581.54 122.64 581.04 123.34 580.03 124.49C579.02 125.65 577.44 126.75 575.27 127.79C573.1 128.83 570.3 129.36 566.87 129.36C561.64 129.36 557.46 128.05 554.33 125.44L554.34 125.46ZM576.46 120.53C577.77 119.63 578.76 118.65 579.43 117.56C580.1 116.48 580.44 115.86 580.44 115.71V100.93C575.44 101.45 571.65 102.63 569.07 104.46C566.49 106.29 565.21 109.07 565.21 112.8C565.21 115.79 565.81 118.05 567 119.58C568.19 121.11 569.8 121.88 571.82 121.88C573.61 121.88 575.16 121.43 576.47 120.54L576.46 120.53Z" fill="#141414"/>
<path d="M641.25 55.35H663.43C669.18 55.35 673.98 56.23 677.82 57.98C681.66 59.73 684.52 62.05 686.39 64.92C688.26 67.8 689.19 70.9101 689.19 74.2701C689.19 78.0001 688.16 81.18 686.11 83.79C684.06 86.4 681.46 88.53 678.33 90.17C682.59 91.51 685.98 93.64 688.52 96.55C691.06 99.46 692.33 103.01 692.33 107.19C692.33 113.54 689.92 118.61 685.11 122.42C680.29 126.23 673.26 128.13 664 128.13H641.26V55.3301L641.25 55.35ZM665.89 87.72C667.98 87.72 669.87 86.7301 671.55 84.7501C673.23 82.7701 674.07 79.58 674.07 75.17C674.07 70.76 673.06 67.6701 671.05 65.6501C669.04 63.6301 666.35 62.6301 662.99 62.6301H656.72V87.72H665.9H665.89ZM663.65 120.87C667.68 120.87 670.85 119.69 673.17 117.34C675.48 114.99 676.64 111.42 676.64 106.64C676.64 98.5001 673.32 94.4301 666.67 94.4301H656.7V120.86H663.64L663.65 120.87Z" fill="#141414"/>
<path d="M704.08 125.46C700.94 122.85 699.38 119.26 699.38 114.71C699.38 108.14 702.46 103.38 708.62 100.43C714.78 97.4801 721.97 95.6701 730.18 95.0001V91.7501C730.18 86.6701 729.47 83.1801 728.05 81.2801C726.63 79.3801 724.24 78.42 720.88 78.42C719.31 78.42 717.54 78.7201 715.56 79.3201C713.58 79.9201 711.86 80.55 710.41 81.22C708.96 81.89 708 82.3401 707.55 82.5601L706.09 75.3901C706.54 75.1701 707.6 74.7001 709.28 73.9901C710.96 73.2801 713.09 72.59 715.66 71.92C718.24 71.25 720.83 70.91 723.44 70.91C730.46 70.91 735.82 72.3901 739.51 75.3301C743.21 78.2801 745.05 83.3401 745.05 90.5101V115.93C745.05 119.89 745.83 121.87 747.4 121.87C748 121.87 748.71 121.76 749.53 121.53C750.35 121.31 750.91 121.16 751.21 121.08L751.66 126.9C751.28 127.05 750.39 127.31 748.97 127.68C747.55 128.06 745.93 128.43 744.1 128.8C742.27 129.17 740.65 129.36 739.23 129.36C737.06 129.36 735.38 128.82 734.19 127.74C732.99 126.66 732.21 124.88 731.84 122.42H731.28C731.28 122.64 730.78 123.34 729.77 124.49C728.76 125.65 727.18 126.75 725.01 127.79C722.84 128.83 720.04 129.36 716.61 129.36C711.38 129.36 707.2 128.05 704.07 125.44L704.08 125.46ZM726.2 120.53C727.51 119.63 728.5 118.65 729.17 117.56C729.84 116.48 730.18 115.86 730.18 115.71V100.93C725.18 101.45 721.39 102.63 718.81 104.46C716.23 106.29 714.95 109.07 714.95 112.8C714.95 115.79 715.55 118.05 716.74 119.58C717.93 121.11 719.54 121.88 721.56 121.88C723.35 121.88 724.9 121.43 726.21 120.54L726.2 120.53Z" fill="#141414"/>
<path d="M758.79 156.99C757.48 156.73 756.49 156.47 755.82 156.21C755.15 155.95 754.74 155.78 754.59 155.71L755.82 146.97C756.12 147.12 756.86 147.36 758.06 147.7C759.26 148.04 760.45 148.2 761.64 148.2C765 148.2 767.72 146.87 769.82 144.22C771.91 141.57 774.22 136.96 776.76 130.39L752.9 72.1501H770.93L784.59 112.02L796.13 72.1501H805.43L786.05 129.38C783.74 135.72 781.55 140.88 779.5 144.84C777.45 148.8 775.11 151.88 772.5 154.08C769.89 156.28 766.83 157.38 763.32 157.38C761.6 157.38 760.09 157.25 758.78 156.99H758.79Z" fill="#141414"/>
<path d="M5.22001 109.56C5.22001 109.27 5.23005 108.98 5.26005 108.69C5.63005 101.26 10.7101 96.35 17.6801 96.35C39.6001 96.35 59.69 137.01 108.75 137.01C149.82 137.01 168.3 106.85 168.3 79.52C168.3 58.22 158.61 40 148.62 31.36C141.39 25.75 133.51 21.96 126.18 20.52C132.22 21.99 138.08 25.54 142.64 30.76C149.91 38.54 156.53 50.24 156.53 70.59C156.53 93.16 140.88 119.89 108.75 119.89C62.75 119.89 46.18 83.69 19.12 83.69C7.31003 83.69 0.300063 96.33 1.40006 105C2.56006 109.93 4.47008 114.97 7.04008 119.97C5.72008 116.56 5.23002 112.62 5.23002 109.54L5.22001 109.56Z" fill="#59E0CD"/>
<path d="M13.76 99.9399C32.61 99.9399 58.43 143.9 108.74 143.9C146.09 143.9 174.65 117.19 174.65 81.9799C174.65 60.6499 162.89 42.4599 148.61 31.3799C158.6 40.0199 168.29 58.2399 168.29 79.5399C168.29 106.87 149.8 137.03 108.74 137.03C59.69 137.03 39.6 96.3699 17.67 96.3699C10.7 96.3699 5.62 101.27 5.25 108.71C5.59 104.45 8.45001 99.9599 13.76 99.9599V99.9399Z" fill="white"/>
<path d="M174.65 81.9799C174.65 117.2 146.09 143.9 108.74 143.9C58.44 143.9 32.61 99.9399 13.76 99.9399C8.45001 99.9399 5.6 104.42 5.25 108.69C5.23 108.98 5.20996 109.27 5.20996 109.56C5.20996 112.64 5.70002 116.58 7.02002 119.99C9.11002 124.05 11.6401 128.1 14.5601 132.05C14.8901 128.75 17.0201 123.85 22.1801 123.85C34.7501 123.85 57.06 159.3 108.73 159.3C160.4 159.3 191.08 126.5 191.08 82.5999C191.08 44.2799 155.15 19.4399 131.98 4.66992C129.39 3.16992 127.33 1.68992 126 0.169922C114.13 9.81992 108.98 20.65 108.98 20.65C108.98 20.65 114.72 19.77 119.97 19.77C122.03 19.77 124.12 20.0399 126.18 20.5399C133.51 21.9899 141.39 25.7699 148.62 31.3799C162.9 42.4599 174.66 60.6499 174.66 81.9799H174.65Z" fill="#F6E026"/>
<path d="M191.09 82.5999C191.09 126.49 159.79 159.3 108.74 159.3C57.69 159.3 34.7599 123.85 22.1899 123.85C17.0299 123.85 14.8999 128.75 14.5699 132.05C32.8099 156.71 66.49 177.81 105.22 177.81C161.96 177.81 206.61 140.18 206.61 86.5099C206.61 32.84 152.46 16.5299 131.98 4.65991C155.15 19.4399 191.08 44.28 191.08 82.59L191.09 82.5999Z" fill="#ECB920"/>
<path d="M19.11 83.7C46.18 83.7 62.74 119.9 108.74 119.9C140.87 119.9 156.52 93.16 156.52 70.6C156.52 50.25 149.9 38.56 142.63 30.77C147.96 36.87 151.52 45.24 151.52 55.2C151.52 82.26 135.98 103.2 105 103.2C70.17 103.2 49.43 70.33 24.91 70.33C10.3 70.33 0.0600586 80.61 0.0600586 94.2C0.0600586 97.71 0.520005 101.33 1.38 105.01C0.280005 96.34 7.28998 83.7 19.1 83.7H19.11Z" fill="#18ABA5"/>
</svg>
