<svg width="16" height="16" viewBox="0 0 16 16" fill="none" xmlns="http://www.w3.org/2000/svg">
<path d="M1.96875 7C1.41647 7 0.96875 7.44772 0.96875 8C0.96875 8.55228 1.41647 9 1.96875 9V7ZM14.7455 8.70711C15.136 8.31658 15.136 7.68342 14.7455 7.29289L8.38155 0.928932C7.99102 0.538408 7.35786 0.538408 6.96733 0.928932C6.57681 1.31946 6.57681 1.95262 6.96733 2.34315L12.6242 8L6.96733 13.6569C6.57681 14.0474 6.57681 14.6805 6.96733 15.0711C7.35786 15.4616 7.99102 15.4616 8.38155 15.0711L14.7455 8.70711ZM1.96875 8V9H14.0384V8V7H1.96875V8Z" fill="white"/>
</svg>
