<svg width="15" height="16" viewBox="0 0 15 16" fill="none" xmlns="http://www.w3.org/2000/svg">
<path d="M13.0703 9C13.6226 9 14.0703 8.55228 14.0703 8C14.0703 7.44772 13.6226 7 13.0703 7L13.0703 9ZM0.293556 7.29289C-0.0969686 7.68342 -0.0969687 8.31658 0.293556 8.70711L6.65752 15.0711C7.04804 15.4616 7.68121 15.4616 8.07173 15.0711C8.46225 14.6805 8.46225 14.0474 8.07173 13.6569L2.41488 8L8.07173 2.34315C8.46226 1.95262 8.46226 1.31946 8.07173 0.928932C7.68121 0.538407 7.04804 0.538407 6.65752 0.928932L0.293556 7.29289ZM13.0703 8L13.0703 7L1.00066 7L1.00066 8L1.00066 9L13.0703 9L13.0703 8Z" fill="white"/>
</svg>
